<?xml version="1.0" encoding="UTF-8" standalone="no"?>
<!-- Generator: Adobe Illustrator 16.0.0, SVG Export Plug-In . SVG Version: 6.00 Build 0)  -->

<svg
   xmlns:dc="http://purl.org/dc/elements/1.1/"
   xmlns:cc="http://creativecommons.org/ns#"
   xmlns:rdf="http://www.w3.org/1999/02/22-rdf-syntax-ns#"
   xmlns:svg="http://www.w3.org/2000/svg"
   xmlns="http://www.w3.org/2000/svg"
   xmlns:sodipodi="http://sodipodi.sourceforge.net/DTD/sodipodi-0.dtd"
   xmlns:inkscape="http://www.inkscape.org/namespaces/inkscape"
   version="1.1"
   id="Lager_1"
   x="0px"
   y="0px"
   width="105.01385"
   height="105.01385"
   viewBox="0 0 105.01386 105.01386"
   enable-background="new 0 0 283.46 283.46"
   xml:space="preserve"
   inkscape:version="0.91 r13725"
   sodipodi:docname="icon.svg"><metadata
     id="metadata185"><rdf:RDF><cc:Work
         rdf:about=""><dc:format>image/svg+xml</dc:format><dc:type
           rdf:resource="http://purl.org/dc/dcmitype/StillImage" /><dc:title></dc:title></cc:Work></rdf:RDF></metadata><defs
     id="defs183" /><sodipodi:namedview
     pagecolor="#ffffff"
     bordercolor="#666666"
     borderopacity="1"
     objecttolerance="10"
     gridtolerance="10"
     guidetolerance="10"
     inkscape:pageopacity="0"
     inkscape:pageshadow="2"
     inkscape:window-width="2560"
     inkscape:window-height="1387"
     id="namedview181"
     showgrid="false"
     showguides="true"
     inkscape:guide-bbox="true"
     inkscape:snap-object-midpoints="true"
     fit-margin-top="0"
     fit-margin-left="0"
     fit-margin-right="0"
     fit-margin-bottom="0"
     inkscape:zoom="6.6605519"
     inkscape:cx="1.9607447"
     inkscape:cy="30.532762"
     inkscape:window-x="2552"
     inkscape:window-y="-8"
     inkscape:window-maximized="1"
     inkscape:current-layer="g3"><sodipodi:guide
       position="52.506941,-9.4924905"
       orientation="1,0"
       id="guide3513" /><sodipodi:guide
       position="141.6842,52.506935"
       orientation="0,1"
       id="guide3515" /></sodipodi:namedview><g
     id="g3"
     transform="translate(-548.89002,56.730974)"><polygon
       points="-118.892,106.178 -118.892,-35.554 -118.892,-35.554 136.226,-35.554 136.226,106.178 "
       id="polygon23"
       style="clip-rule:evenodd;fill:#e79e48;fill-rule:evenodd"
       transform="matrix(0.41162857,0,0,0.74093259,597.82936,-30.387857)"
       inkscape:export-xdpi="13.712478"
       inkscape:export-ydpi="13.712478" /><path
       d="m 601.39778,38.705449 c 6.8395,0 12.38173,1.023283 12.38173,2.285882 0,1.260949 -5.54223,2.282582 -12.38173,2.282582 -6.83949,0 -12.38337,-1.023283 -12.38337,-2.282582 0,-1.260949 5.54388,-2.285882 12.38337,-2.285882 l 0,0 z"
       id="path33"
       inkscape:connector-curvature="0"
       style="clip-rule:evenodd;fill:#1d1d1b;fill-rule:evenodd" /><path
       d="m 601.39448,7.138811 0.003,0 c 4.92827,0 9.53799,-1.3583263 13.47929,-3.7201301 l -0.0215,0.6766873 c -0.0165,0.4918362 0.3466,0.863189 1.42765,1.9656941 0.46047,0.4703802 1.06949,1.0909517 1.87656,1.9475397 3.57489,3.791099 4.75827,7.502976 5.57855,10.076039 0.49018,1.539876 0.85989,2.698497 1.55473,3.340524 0.74436,0.68494 1.24774,0.744356 1.65541,0.79222 0.30203,0.03466 0.50339,0.05942 0.96882,1.343471 0.29543,0.813676 0.47368,1.680166 0.44727,2.487239 -0.0165,0.557854 -0.13204,1.089301 -0.37796,1.549779 -0.70804,-0.127085 -0.71794,-0.331742 -0.7361,-0.717949 -0.0264,-0.536398 -0.0611,-1.2659 -0.60077,-2.266077 -0.0891,-0.189803 -0.29048,-0.311936 -0.51164,-0.28883 l -4.12614,0.463778 0,0 c -0.24262,0.02641 -0.43737,0.227763 -0.44562,0.480283 l -0.10398,2.777719 c -0.0594,0.36145 -0.0809,0.561156 -0.0941,0.681639 -0.003,0.03796 -0.003,0.05282 -0.005,0.06107 l 0,0.0016 c -0.002,0.0033 -0.003,0.005 -0.003,0.0066 l -0.11058,-0.02476 c -0.80872,-0.18155 -1.33027,-0.297082 -1.29396,-4.974477 l 1.81715,-1.44745 -0.002,0 c 0.13369,-0.103979 0.20961,-0.275627 0.18486,-0.455526 -0.30864,-2.312291 -1.29231,-5.213794 -2.61103,-7.646567 -1.17512,-2.163749 -2.62918,-3.97265 -4.14429,-4.713705 -0.0644,-0.03796 -0.14029,-0.06107 -0.21952,-0.06602 -0.27727,-0.0165 -0.51494,0.194754 -0.52979,0.47038 l -1.15697,19.150251 c -0.82028,0.584262 -3.33558,1.853463 -5.93174,3.012084 -2.34695,1.051341 -4.74012,1.998703 -5.96476,2.249572 l -0.003,-0.0016 0,-27.075745 0,-0.135337 0,0 z m 0.39446,-14.9316835 0,0.1980549 0,13.2267612 c 6.67775,-0.1023284 12.71182,-2.8519895 17.10039,-7.2422047 4.39351,-4.3918657 7.14152,-10.4259359 7.2455,-17.1020339 l -13.42481,0 c -0.10233,2.969172 -1.34678,5.649514 -3.30917,7.610257 -1.96239,1.9623927 -4.64108,3.2084877 -7.61191,3.3091655 l 0,0 z m -0.78561,13.4231656 0,-13.2267612 0,-0.1980548 c -2.96918,-0.1006779 -5.64952,-1.3451224 -7.61026,-3.3091661 -1.96239,-1.960743 -3.20684,-4.641085 -3.30917,-7.610256 l -13.42316,0 0,0.171647 c 0.14854,6.608429 2.88665,12.5781317 7.24055,16.9303864 4.39022,4.3918657 10.42429,7.1398764 17.10204,7.2422047 l 0,0 z m -24.34259,-25.1298561 13.42316,0 c 0.10233,-2.969172 1.34513,-5.649514 3.30917,-7.611907 1.96074,-1.962393 4.64108,-3.206837 7.61026,-3.309166 l 0,-0.0017 0,-13.408312 -0.51825,0 c -6.46979,0.234365 -12.3058,2.952668 -16.58379,7.230652 -4.3539,4.352255 -7.09201,10.321957 -7.24055,16.928736 l 0,0.171647 0,0 z m 25.1282,-24.331035 0,13.408312 0,0.0033 c 2.97083,0.102328 5.64952,1.346773 7.61191,3.309166 1.96074,1.962393 3.20684,4.641084 3.30917,7.611907 l 13.42481,0 c -0.10233,-6.676098 -2.85199,-12.711819 -7.2455,-17.102034 -4.27469,-4.277984 -10.1107,-6.996287 -16.58049,-7.230652 l -0.5199,0 0,0 z m -0.39116,18.24415 c 3.5782,0 6.4797,2.901504 6.4797,6.479694 0,3.57819 -2.9015,6.479693 -6.4797,6.479693 -3.57819,0 -6.47969,-2.901503 -6.47969,-6.479693 0,-1.686767 0.64533,-3.223342 1.70162,-4.377012 0.071,1.345123 1.18503,2.412968 2.54666,2.412968 1.40949,0 2.5483,-1.142116 2.5483,-2.549955 0,-0.777366 -0.34494,-1.472208 -0.89289,-1.939287 0.1898,-0.0165 0.38125,-0.02641 0.576,-0.02641 l 0,0 z m 6.94018,-0.460477 c -1.7759,-1.775892 -4.23013,-2.873445 -6.94018,-2.873445 -2.7117,0 -5.16427,1.099204 -6.94017,2.873445 -1.77589,1.775892 -2.87344,4.22847 -2.87344,6.940171 0,2.71005 1.09755,5.164279 2.87344,6.940171 1.7759,1.775892 4.22847,2.8750957 6.94017,2.8750957 2.71005,0 5.16428,-1.0992037 6.94018,-2.8750957 1.77589,-1.775892 2.87344,-4.230121 2.87344,-6.940171 0,-2.71005 -1.09755,-5.164279 -2.87344,-6.940171 l 0,0 z m 24.30132,11.640672 0,-9.399352 c 0.17495,0.140289 0.34165,0.290481 0.50174,0.448925 1.086,1.087651 1.75939,2.589566 1.75939,4.249926 0,1.660359 -0.67339,3.163926 -1.75939,4.249926 -0.16009,0.160095 -0.32514,0.308636 -0.50174,0.450575 l 0,0 z m -1.70822,-14.454701 c -0.373,-0.371353 -0.85329,-0.632125 -1.38803,-0.731152 l 0,20.9690537 c 0.53474,-0.099027 1.01503,-0.3597996 1.38803,-0.7295019 0.47533,-0.476982 0.77241,-1.1355138 0.77241,-1.8567638 l 0,-15.794872 c 0,-0.7229 -0.29708,-1.378132 -0.77241,-1.856764 l 0,0 z m -60.77642,14.454701 0,-9.399352 c -0.17495,0.140289 -0.3433,0.290481 -0.50174,0.448925 -1.0893,1.087651 -1.75939,2.589566 -1.75939,4.249926 0,1.660359 0.67009,3.163926 1.75939,4.249926 0.15844,0.160095 0.32679,0.308636 0.50174,0.450575 l 0,0 z m 1.70822,-14.454701 c 0.37135,-0.371353 0.85164,-0.632125 1.38803,-0.731152 l 0,20.9690537 c -0.53639,-0.099027 -1.01668,-0.3597996 -1.38803,-0.7295019 -0.47698,-0.476982 -0.77241,-1.1355138 -0.77241,-1.8567638 l 0,-15.794872 c 0,-0.7229 0.29543,-1.378132 0.77241,-1.856764 l 0,0 z m 34.23212,-21.429532 -9.3977,0 c 0.14029,-0.174948 0.29048,-0.343295 0.44893,-0.501739 1.086,-1.087651 2.58956,-1.761037 4.24992,-1.761037 1.66036,0 3.16228,0.673386 4.24993,1.761037 0.16175,0.158444 0.31029,0.32514 0.44892,0.501739 l 0,0 z m -14.45305,1.706573 c -0.373,0.373003 -0.63212,0.853286 -0.7295,1.389684 l 20.96906,0 c -0.099,-0.536398 -0.3598,-1.016681 -0.73116,-1.389684 -0.47533,-0.475332 -1.13386,-0.772414 -1.85511,-0.772414 l -15.79487,0 c -0.7229,0 -1.37978,0.297082 -1.85842,0.772414 l 0,0 z"
       id="path35"
       inkscape:connector-curvature="0"
       style="clip-rule:evenodd;fill:#ffffff;fill-rule:evenodd" /><path
       d="m 588.94014,2.2749143 c 2.48393,0.8087239 5.13457,1.2444445 7.88918,1.2444445 1.42104,0 2.81568,-0.115532 4.17401,-0.3399941 l 0,2.4509284 c -4.39517,-0.067669 -8.50976,-1.2807545 -12.06319,-3.3553788 l 0,0 z m 12.8488,0.7608606 c 10.66195,-2.102682 18.93734,-10.8501033 20.32703,-21.7497199 l 4.01886,0 c -0.10233,6.676098 -2.85199,12.7101678 -7.2455,17.1020334 -4.38857,4.3918657 -10.42264,7.1398764 -17.10039,7.2422047 l 0,-2.5945182 0,0 z m 20.4145,-22.5353379 c 0.0792,-0.815325 0.11884,-1.640554 0.11884,-2.475685 0,-6.851046 -2.70345,-13.071618 -7.10027,-17.653286 1.31872,0.891246 2.54831,1.904627 3.66732,3.026937 4.39351,4.390216 7.14152,10.425936 7.2455,17.102034 l -3.93139,0 0,0 z"
       id="path37"
       inkscape:connector-curvature="0"
       style="clip-rule:evenodd;fill:#ececec;fill-rule:evenodd" /><path
       d="m 611.34674,-43.403129 0,-2.855291 1.04474,0 0.46708,0 0,-0.468729 c 0,-0.980372 -0.40106,-1.871618 -1.04804,-2.516947 -0.64533,-0.645329 -1.53658,-1.04639 -2.5153,-1.04639 l -2.04822,0 c -0.27067,-0.420866 -0.58426,-0.810374 -0.93581,-1.163572 -1.25929,-1.257648 -2.99557,-2.035013 -4.91341,-2.035013 -1.91783,0 -3.65576,0.777365 -4.91341,2.035013 -0.35154,0.351547 -0.66678,0.742706 -0.9358,1.163572 l -2.04822,0 c -0.98202,0 -1.87162,0.401061 -2.51695,1.04639 -0.64698,0.646979 -1.04804,1.538226 -1.04804,2.516947 l 0,0.468729 0.46873,0 1.04474,0 0,2.855291 c -3.2481,1.331918 -6.16776,3.294312 -8.61043,5.736988 -2.44103,2.441025 -4.40507,5.363984 -5.73699,8.608783 l -2.91471,0 0,-1.043089 0,-0.467079 -0.46873,0 c -0.98037,0 -1.87162,0.39941 -2.51694,1.046389 -0.64533,0.645329 -1.04639,1.536576 -1.04639,2.516947 l 0,2.048217 c -0.42087,0.270675 -0.81038,0.584262 -1.16193,0.935809 -1.25764,1.257648 -2.03501,2.993929 -2.03501,4.91341 0,1.919481 0.77902,3.655762 2.03501,4.91341 0.35155,0.353198 0.74106,0.666784 1.16193,0.937459 l 0,2.048217 c 0,0.982022 0.40106,1.8716184 1.04639,2.5185975 0.64698,0.6453286 1.53822,1.0463896 2.51694,1.0463896 l 0.46873,0 0,-0.4670793 0,-1.0480401 2.91471,0 c 1.33192,3.2464486 3.29431,6.1677572 5.73699,8.6104334 1.23619,1.2361922 2.59617,2.3502506 4.05847,3.3223697 l 0.0413,1.3467727 c 0.003,0.069319 -0.28553,0.3631006 -1.14046,1.2361922 -0.47203,0.4819334 -1.09591,1.1190098 -1.89143,1.9640433 -3.72838,3.952845 -4.95302,7.796759 -5.803,10.462247 -0.44398,1.391335 -0.77737,2.441025 -1.28076,2.904804 -0.50339,0.463778 -0.82688,0.503389 -1.0893,0.531447 -0.67008,0.07922 -1.11901,0.130386 -1.79735,1.998703 -0.33339,0.920955 -0.53474,1.91453 -0.50669,2.85529 0.0264,0.853286 0.24097,1.663661 0.71135,2.3486 0.10728,0.158444 0.29378,0.236016 0.47203,0.21456 l 0,0 c 1.86007,-0.221161 1.88317,-0.701444 1.93269,-1.711524 0.0181,-0.389508 0.0429,-0.901149 0.34659,-1.566284 l 3.35373,0.374654 c 0.0396,1.115709 0.0743,2.020159 0.18485,3.094607 0.10398,1.018332 0.60242,1.082699 1.32862,0.920955 1.30881,-0.293782 2.14229,-0.478633 2.07957,-6.199116 -0.002,-0.156794 -0.0759,-0.297082 -0.1898,-0.386207 l 0.002,0 -1.77754,-1.416092 c 0.33174,-2.150545 1.2461,-4.787975 2.45753,-7.019393 0.90775,-1.673563 1.9723,-3.104509 3.06325,-3.903331 l 1.12231,18.551135 c 0.01,0.151842 0.0842,0.282229 0.19475,0.368052 0.69815,0.580961 3.47587,2.005305 6.313,3.272856 6.73056,3.010434 6.00106,3.017035 12.74978,0 2.86684,-1.280754 5.67592,-2.723254 6.33445,-3.292661 0.10563,-0.09243 0.16505,-0.21786 0.17165,-0.348247 l 0,0 1.12231,-18.551135 c 1.09095,0.798822 2.15715,2.229768 3.06325,3.903331 1.21143,2.231418 2.12579,4.870498 2.45918,7.019393 l -1.77754,1.416092 c -0.13204,0.103979 -0.19641,0.262422 -0.18815,0.419216 -0.0594,5.689125 0.77241,5.875626 2.07792,6.167757 1.89638,0.422517 1.47221,-2.880047 1.51512,-4.015561 l 3.35208,-0.374654 c 0.30533,0.665134 0.32844,1.176776 0.34824,1.566283 0.0495,1.01008 0.0726,1.488713 1.93269,1.711524 0.20136,0.02311 0.38786,-0.07592 0.48853,-0.239316 0.45883,-0.679988 0.66844,-1.48211 0.69485,-2.327144 0.0297,-0.940761 -0.1733,-1.934336 -0.50834,-2.855291 -0.67834,-1.868317 -1.12727,-1.921131 -1.7957,-1.998703 -0.26242,-0.02971 -0.58591,-0.06767 -1.09095,-0.531447 -0.50669,-0.465429 -0.83843,-1.513469 -1.28076,-2.906454 -0.84998,-2.665488 -2.07297,-6.507752 -5.80135,-10.460596 -0.79552,-0.845034 -1.42105,-1.4821103 -1.89473,-1.9640437 -0.85493,-0.8730917 -1.14046,-1.166873 -1.13881,-1.2361922 l 0.0413,-1.3467728 c 1.46395,-0.9721191 2.82228,-2.084527 4.06012,-3.3223697 2.44103,-2.4410257 4.40507,-5.3639847 5.73534,-8.6104333 l 2.91636,0 0,1.0447392 0,0.4670792 0.46708,0 c 0.98202,0 1.87327,-0.401061 2.51694,-1.0463896 0.64698,-0.6469791 1.04804,-1.5365751 1.04804,-2.5185971 l 0,-2.048217 c 0.42087,-0.270675 0.81038,-0.584262 1.16193,-0.937459 1.25764,-1.257649 2.03501,-2.992279 2.03501,-4.91341 0,-1.917831 -0.77902,-3.655762 -2.03501,-4.91341 -0.35155,-0.353198 -0.74106,-0.666785 -1.16193,-0.935809 l 0,-2.043266 c 0,-0.982022 -0.40106,-1.873269 -1.04804,-2.516947 -0.64533,-0.646979 -1.53657,-1.046389 -2.51694,-1.046389 l -0.46708,0 0,0.467079 0,1.044739 -2.91636,0 c -1.33027,-3.246449 -3.29266,-6.167757 -5.73534,-8.608783 -2.44432,-2.442676 -5.36563,-4.405069 -8.61208,-5.738638 l 0,0 z m -9.95226,50.54194 0.003,0 c 4.92827,0 9.53799,-1.3583263 13.47929,-3.7201301 l -0.0215,0.6766873 c -0.0165,0.4918362 0.3466,0.863189 1.42765,1.9656941 0.46047,0.4703802 1.06949,1.0909517 1.87656,1.9475397 3.57489,3.791099 4.75827,7.502976 5.57855,10.076039 0.49018,1.539876 0.85989,2.698497 1.55473,3.340524 0.74436,0.68494 1.24774,0.744356 1.65541,0.79222 0.30203,0.03466 0.50339,0.05942 0.96882,1.343471 0.29543,0.813676 0.47368,1.680166 0.44727,2.487239 -0.0165,0.557854 -0.13204,1.089301 -0.37796,1.549779 -0.70804,-0.127085 -0.71794,-0.331742 -0.7361,-0.717949 -0.0264,-0.536398 -0.0611,-1.2659 -0.60077,-2.266077 -0.0891,-0.189803 -0.29048,-0.311936 -0.51164,-0.28883 l -4.12614,0.463778 0,0 c -0.24262,0.02641 -0.43737,0.227763 -0.44562,0.480283 l -0.10398,2.777719 c -0.0594,0.36145 -0.0809,0.561156 -0.0941,0.681639 -0.003,0.03796 -0.003,0.05282 -0.005,0.06107 l 0,0.0016 c -0.002,0.0033 -0.003,0.005 -0.003,0.0066 l -0.11058,-0.02476 c -0.80872,-0.18155 -1.33027,-0.297082 -1.29396,-4.974477 l 1.81715,-1.44745 -0.002,0 c 0.13369,-0.103979 0.20961,-0.275627 0.18486,-0.455526 -0.30864,-2.312291 -1.29231,-5.213794 -2.61103,-7.646567 -1.17512,-2.163749 -2.62918,-3.97265 -4.14429,-4.713705 -0.0644,-0.03796 -0.14029,-0.06107 -0.21952,-0.06602 -0.27727,-0.0165 -0.51494,0.194754 -0.52979,0.47038 l -1.15697,19.150251 c -0.82028,0.584262 -3.33558,1.853463 -5.93174,3.012084 -2.34695,1.051341 -4.74012,1.998703 -5.96476,2.249572 l -0.003,-0.0016 0,-27.075745 0,-0.135337 0,0 z m 0.39446,-14.9316835 0,0.1980549 0,13.2267612 c 6.67775,-0.1023284 12.71182,-2.8519895 17.10039,-7.2422047 4.39351,-4.3918657 7.14152,-10.4259359 7.2455,-17.1020339 l -13.42481,0 c -0.10233,2.969172 -1.34678,5.649514 -3.30917,7.610257 -1.96239,1.9623927 -4.64108,3.2084877 -7.61191,3.3091655 l 0,0 z m -0.78561,13.4231656 0,-13.2267612 0,-0.1980548 c -2.96918,-0.1006779 -5.64952,-1.3451224 -7.61026,-3.3091661 -1.96239,-1.960743 -3.20684,-4.641085 -3.30917,-7.610256 l -13.42316,0 0,0.171647 c 0.14854,6.608429 2.88665,12.5781317 7.24055,16.9303864 4.39022,4.3918657 10.42429,7.1398764 17.10204,7.2422047 l 0,0 z m -24.34259,-25.1298561 13.42316,0 c 0.10233,-2.969172 1.34513,-5.649514 3.30917,-7.611907 1.96074,-1.962393 4.64108,-3.206837 7.61026,-3.309166 l 0,-0.0017 0,-13.408312 -0.51825,0 c -6.46979,0.234365 -12.3058,2.952668 -16.58379,7.230652 -4.3539,4.352255 -7.09201,10.321957 -7.24055,16.928736 l 0,0.171647 0,0 z m 25.1282,-24.331035 0,13.408312 0,0.0033 c 2.97083,0.102328 5.64952,1.346773 7.61191,3.309166 1.96074,1.962393 3.20684,4.641084 3.30917,7.611907 l 13.42481,0 c -0.10233,-6.676098 -2.85199,-12.711819 -7.2455,-17.102034 -4.27469,-4.277984 -10.1107,-6.996287 -16.58049,-7.230652 l -0.5199,0 0,0 z m -0.39116,18.24415 c 3.5782,0 6.4797,2.901504 6.4797,6.479694 0,3.57819 -2.9015,6.479693 -6.4797,6.479693 -3.57819,0 -6.47969,-2.901503 -6.47969,-6.479693 0,-1.686767 0.64533,-3.223342 1.70162,-4.377012 0.071,1.345123 1.18503,2.412968 2.54666,2.412968 1.40949,0 2.5483,-1.142116 2.5483,-2.549955 0,-0.777366 -0.34494,-1.472208 -0.89289,-1.939287 0.1898,-0.0165 0.38125,-0.02641 0.576,-0.02641 l 0,0 z m 6.94018,-0.460477 c -1.7759,-1.775892 -4.23013,-2.873445 -6.94018,-2.873445 -2.7117,0 -5.16427,1.099204 -6.94017,2.873445 -1.77589,1.775892 -2.87344,4.22847 -2.87344,6.940171 0,2.71005 1.09755,5.164279 2.87344,6.940171 1.7759,1.775892 4.22847,2.8750957 6.94017,2.8750957 2.71005,0 5.16428,-1.0992037 6.94018,-2.8750957 1.77589,-1.775892 2.87344,-4.230121 2.87344,-6.940171 0,-2.71005 -1.09755,-5.164279 -2.87344,-6.940171 l 0,0 z m 24.30132,11.640672 0,-9.399352 c 0.17495,0.140289 0.34165,0.290481 0.50174,0.448925 1.086,1.087651 1.75939,2.589566 1.75939,4.249926 0,1.660359 -0.67339,3.163926 -1.75939,4.249926 -0.16009,0.160095 -0.32514,0.308636 -0.50174,0.450575 l 0,0 z m -1.70822,-14.454701 c -0.373,-0.371353 -0.85329,-0.632125 -1.38803,-0.731152 l 0,20.9690537 c 0.53474,-0.099027 1.01503,-0.3597996 1.38803,-0.7295019 0.47533,-0.476982 0.77241,-1.1355138 0.77241,-1.8567638 l 0,-15.794872 c 0,-0.7229 -0.29708,-1.378132 -0.77241,-1.856764 l 0,0 z m -60.77642,14.454701 0,-9.399352 c -0.17495,0.140289 -0.3433,0.290481 -0.50174,0.448925 -1.0893,1.087651 -1.75939,2.589566 -1.75939,4.249926 0,1.660359 0.67009,3.163926 1.75939,4.249926 0.15844,0.160095 0.32679,0.308636 0.50174,0.450575 l 0,0 z m 1.70822,-14.454701 c 0.37135,-0.371353 0.85164,-0.632125 1.38803,-0.731152 l 0,20.9690537 c -0.53639,-0.099027 -1.01668,-0.3597996 -1.38803,-0.7295019 -0.47698,-0.476982 -0.77241,-1.1355138 -0.77241,-1.8567638 l 0,-15.794872 c 0,-0.7229 0.29543,-1.378132 0.77241,-1.856764 l 0,0 z m 34.23212,-21.429532 -9.3977,0 c 0.14029,-0.174948 0.29048,-0.343295 0.44893,-0.501739 1.086,-1.087651 2.58956,-1.761037 4.24992,-1.761037 1.66036,0 3.16228,0.673386 4.24993,1.761037 0.16175,0.158444 0.31029,0.32514 0.44892,0.501739 l 0,0 z m -14.45305,1.706573 c -0.373,0.373003 -0.63212,0.853286 -0.7295,1.389684 l 20.96906,0 c -0.099,-0.536398 -0.3598,-1.016681 -0.73116,-1.389684 -0.47533,-0.475332 -1.13386,-0.772414 -1.85511,-0.772414 l -15.79487,0 c -0.7229,0 -1.37978,0.297082 -1.85842,0.772414 l 0,0 z"
       id="path39"
       inkscape:connector-curvature="0"
       style="clip-rule:evenodd;fill:#1d1d1b;fill-rule:evenodd" /></g></svg>